<svg width="512" height="512" viewBox="0 0 64 64" xmlns="http://www.w3.org/2000/svg" role="img" aria-label="售后酱">
  <rect x="4" y="4" width="56" height="56" rx="16" fill="#bd4f2a"/>
  <g transform="translate(16,17) scale(1.30)" fill="none" stroke="#fbeee6" stroke-width="2.2" stroke-linecap="round" stroke-linejoin="round">
    <path d="M16.5 9.4 7.5 4.21"/>
    <path d="M21 16V8a2 2 0 0 0-1-1.73l-7-4a2 2 0 0 0-2 0l-7 4A2 2 0 0 0 3 8v8a2 2 0 0 0 1 1.73l7 4a2 2 0 0 0 2 0l7-4A2 2 0 0 0 21 16z"/>
    <path d="M3.27 6.96 12 12.01l8.73-5.05"/>
    <path d="M12 22.08V12"/>
  </g>
</svg>
